<?xml version="1.0" encoding="utf-8"?>
<svg version="1.1" xmlns="http://www.w3.org/2000/svg" width="1421" height="400" viewBox="0 0 1421 400" preserveAspectRatio="xMidYTop meet">
  
	<path d="M 547 159.542 C 540.675 160.237, 531.052 162.007, 525.616 163.474 C 515.616 166.173, 496.780 173.657, 496.167 175.175 C 495.983 175.629, 495.263 176, 494.567 176 C 493.870 176, 491.436 177.350, 489.159 179 C 486.881 180.650, 484.676 182.008, 484.259 182.018 C 482.951 182.050, 476.806 187.228, 469.448 194.500 C 433.718 229.810, 433.502 284.775, 468.955 320.011 C 475.236 326.254, 480.692 331, 481.587 331 C 481.919 331, 483.578 331.988, 485.273 333.195 C 508.042 349.407, 551.093 356.747, 584.500 350.112 C 595.870 347.854, 613.133 342.965, 618.651 340.441 C 623.204 338.359, 625 338.601, 625 341.300 C 625 345.452, 626.672 346, 639.342 346 C 656.985 346, 665.291 343.252, 675.247 334.121 C 684.298 325.820, 690 311.432, 690 296.895 L 690 288.045 650.447 287.773 L 610.894 287.500 608.220 290.291 C 604.168 294.522, 597.321 298.569, 589 301.653 C 579.393 305.213, 558.406 305.672, 549.031 302.528 C 532.244 296.898, 520.072 287.622, 514.515 276.225 C 512.980 273.076, 511.249 269.600, 510.668 268.500 C 510.088 267.400, 509.422 262.370, 509.190 257.323 C 508.705 246.790, 510.488 239.293, 515.165 232.200 C 516.724 229.835, 518 227.658, 518 227.363 C 518 227.068, 521.011 223.947, 524.691 220.426 C 531.440 213.969, 539.711 209.190, 547.750 207.103 C 550.087 206.497, 553.740 205.550, 555.866 205 C 557.992 204.450, 562.293 204, 565.423 204 C 570.760 204, 573.895 204.515, 585 207.219 C 596.103 209.922, 606.997 217.885, 612.161 227.072 C 613.330 229.153, 615.235 231.081, 616.393 231.357 C 619.234 232.034, 683.038 232.072, 685.250 231.398 C 688.354 230.453, 686.297 218.743, 682.750 217.167 C 682.337 216.983, 682 216.351, 682 215.761 C 682 209.068, 648.031 176, 641.156 176 C 640.520 176, 640 175.550, 640 175 C 640 174.450, 639.487 174, 638.860 174 C 638.232 174, 635.870 173.137, 633.610 172.082 C 626.648 168.832, 616.831 165.367, 609.500 163.571 C 605.650 162.628, 600.925 161.437, 599 160.924 C 588.774 158.200, 564.955 157.567, 547 159.542 M 739.975 164.458 C 720.561 168.762, 707.369 182.049, 701.557 203.154 C 699.735 209.770, 699.268 244, 701 244 C 701.636 244, 702 252, 702 266 C 702 280, 701.636 288, 701 288 C 699.910 288, 699.537 341.629, 700.607 344.418 C 701.337 346.319, 723.700 346.717, 730.500 344.949 C 746.573 340.771, 759.365 327.389, 763.429 310.500 C 765.019 303.893, 765.957 288, 764.757 288 C 764.341 288, 764 281.250, 764 273 C 764 263.667, 764.378 258, 765 258 C 765.550 258, 766 256.650, 766 255 C 766 253.350, 765.550 252, 765 252 C 764.450 252, 764 251.100, 764 250 C 764 248.900, 764.337 248, 764.750 248 C 765.163 248, 765.500 237.350, 765.500 224.333 C 765.500 206.288, 765.797 200.567, 766.750 200.250 C 767.466 200.011, 768 198.161, 768 195.917 C 768 193.762, 768.450 192, 769 192 C 769.550 192, 770 191.100, 770 190 C 770 188.900, 770.450 188, 771 188 C 771.550 188, 772 187.281, 772 186.401 C 772 185.522, 773.350 183.541, 775 182 C 776.650 180.459, 778 178.478, 778 177.599 C 778 176.719, 778.719 176, 779.599 176 C 780.478 176, 782.459 174.650, 784 173 C 785.541 171.350, 787.522 170, 788.401 170 C 789.281 170, 790 169.550, 790 169 C 790 168.450, 791.350 168, 793 168 C 794.650 168, 796 167.550, 796 167 C 796 166.450, 796.852 166, 797.893 166 C 798.934 166, 800.035 165.351, 800.339 164.558 C 801.078 162.634, 748.597 162.547, 739.975 164.458 M 421.211 427.601 C 420.501 428.370, 420.362 429, 420.902 429 C 421.940 429, 423.443 427.098, 422.850 426.534 C 422.658 426.351, 421.920 426.831, 421.211 427.601 M 498.500 439.878 C 493.295 441.244, 489.052 443.945, 483.694 449.304 C 473.090 459.911, 472.997 460.452, 473.011 511.799 C 473.019 544.400, 473.323 554.482, 474.402 558 C 476.256 564.042, 478.139 568, 479.161 568 C 479.622 568, 480 568.669, 480 569.487 C 480 571.746, 486.835 577.661, 493 580.738 C 497.774 583.120, 499.689 583.483, 507.500 583.483 C 522.258 583.483, 532.583 576.945, 538.974 563.554 L 542 557.214 542 511.654 C 542 479.840, 541.656 465.250, 540.859 463.297 C 537.673 455.482, 536.578 453.702, 532.220 449.250 C 525.529 442.413, 519.389 439.748, 509.500 439.384 C 505.100 439.223, 500.150 439.445, 498.500 439.878 M 946.500 439.629 C 938.999 441.538, 925 452.498, 925 456.461 C 925 457.216, 924.540 457.987, 923.978 458.174 C 921.342 459.053, 920.625 470.404, 920.610 511.500 C 920.593 561.993, 920.898 563.877, 930.672 573.513 C 948.666 591.252, 978.221 585.007, 987.522 561.500 C 989.388 556.782, 989.500 553.986, 989.500 512 C 989.500 464.124, 989.120 460.266, 983.854 454.612 C 982.834 453.518, 982 452.286, 982 451.874 C 982 450.674, 974.785 444.206, 972.025 442.932 C 970.636 442.291, 968.600 441.285, 967.500 440.696 C 965.377 439.559, 949.870 438.771, 946.500 439.629 M 393.158 442.250 C 391.803 446.095, 392.335 579.735, 393.711 581.111 C 395.194 582.594, 413.020 583.141, 414.750 581.756 C 415.691 581.003, 416 574.479, 416 555.378 L 416 530 423.250 529.988 C 439.818 529.961, 451.217 523.159, 458.193 509.136 C 461.670 502.148, 461.557 467.347, 458.031 459.237 C 455.179 452.678, 446.371 444.433, 440.557 442.882 C 438.325 442.286, 435.466 441.394, 434.203 440.900 C 432.940 440.405, 423.366 440, 412.928 440 C 394.149 440, 393.942 440.024, 393.158 442.250 M 559.547 440.923 C 558.804 442.126, 558.791 579.292, 559.534 581.228 C 560.108 582.723, 578.677 582.936, 581.041 581.475 C 581.612 581.122, 582 570.600, 582 555.441 L 582 530 587.933 530 C 593.240 530, 593.929 530.237, 594.468 532.250 C 594.799 533.487, 595.499 536.075, 596.022 538 C 596.546 539.925, 598.329 547.350, 599.985 554.500 C 601.641 561.650, 603.404 568.850, 603.903 570.500 C 604.402 572.150, 605.095 575.172, 605.444 577.215 C 606.280 582.119, 606.840 582.359, 617.971 582.582 C 631.242 582.848, 632.995 581.932, 630.125 576.236 C 629.644 575.281, 628.488 571.125, 627.557 567 C 626.626 562.875, 625.487 558.375, 625.026 557 C 624.565 555.625, 623.199 550, 621.990 544.500 C 620.781 539, 619.410 533.752, 618.942 532.837 C 615.719 526.533, 617.154 518.129, 622.378 512.723 C 623.573 511.487, 625.417 506.005, 626.489 500.500 C 627.230 496.696, 627.142 476.396, 626.349 468.500 C 624.864 453.700, 616.751 444.677, 601.736 441.127 C 596.023 439.776, 560.363 439.604, 559.547 440.923 M 640.628 443.112 C 639.424 449.132, 639.914 461.057, 641.429 462.571 C 642.468 463.611, 645.467 464, 652.429 464 C 660.853 464, 662.008 464.210, 662.063 465.750 C 662.098 466.712, 662.211 493, 662.313 524.167 C 662.416 555.333, 662.868 581.202, 663.318 581.651 C 664.559 582.893, 684.143 582.802, 684.595 581.553 C 685.696 578.513, 685.857 571.040, 685.926 519.784 L 686 464.068 696.750 463.784 L 707.500 463.500 708.018 455 C 708.303 450.325, 708.285 445.150, 707.978 443.500 L 707.419 440.500 674.337 440.237 L 641.255 439.973 640.628 443.112 M 723.460 441.250 C 723.197 441.938, 723.099 474, 723.241 512.500 L 723.500 582.500 734.500 582.500 L 745.500 582.500 746 514 C 746.275 476.325, 746.358 444.262, 746.184 442.750 L 745.867 440 734.902 440 C 727.052 440, 723.802 440.355, 723.460 441.250 M 764.275 440.790 C 763.010 441.613, 762.208 580.541, 763.461 581.794 C 764.197 582.530, 821.009 582.324, 821.751 581.583 C 822.444 580.889, 822.123 561.007, 821.400 559.837 C 821.115 559.377, 813.034 559, 803.441 559 L 786 559 785.926 504.250 C 785.885 474.137, 785.548 447.475, 785.176 445 L 784.500 440.500 775 440.246 C 769.775 440.106, 764.949 440.351, 764.275 440.790 M 834.959 442.608 C 833.742 445.808, 834.105 580.440, 835.334 581.667 C 835.792 582.125, 840.742 582.500, 846.334 582.500 L 856.500 582.500 857.038 553 C 857.334 536.775, 857.671 523.388, 857.788 523.250 C 857.905 523.112, 863.175 523, 869.500 523 L 881 523 881 551.941 C 881 570.182, 881.370 581.111, 882.001 581.501 C 882.880 582.044, 890.601 582.277, 900.757 582.067 L 904.013 582 903.757 511.250 L 903.500 440.500 892.500 440.500 L 881.500 440.500 881 470 L 880.500 499.500 872 499.804 C 867.325 499.972, 862.014 499.834, 860.197 499.499 L 856.894 498.889 857.003 470.695 C 857.064 455.188, 857.088 441.938, 857.057 441.250 C 857.015 440.333, 854.198 440, 846.475 440 C 836.053 440, 835.941 440.025, 834.959 442.608 M 501.893 463.497 C 495.917 466.745, 496 466.071, 496 511.365 L 496 552.800 499.600 556.400 C 506.177 562.977, 515.329 559.988, 517.775 550.465 C 519.886 542.246, 519.059 472.520, 516.801 468.398 C 513.545 462.455, 507.480 460.460, 501.893 463.497 M 949.487 463.115 C 948.380 463.653, 946.468 465.563, 945.237 467.359 C 943.012 470.606, 943 470.841, 943 510.878 C 943 538.969, 943.343 551.791, 944.136 553.316 C 947.724 560.218, 956.242 562.153, 961.575 557.277 C 965.673 553.532, 966 550.084, 966 510.668 C 966 474.792, 965.902 472.769, 963.956 468.630 C 961.133 462.624, 955.168 460.351, 949.487 463.115 M 416 485 L 416 506 424.326 506 C 436.781 506, 439 502.734, 439 484.403 C 439 467.592, 436.004 464, 421.980 464 L 416 464 416 485 M 581.998 485.125 L 581.995 506.500 589.715 506.163 C 602.958 505.586, 605.270 502.032, 604.534 483.384 C 603.853 466.145, 602.899 464.846, 590.427 464.191 L 582 463.749 581.998 485.125" stroke="none" fill="#002d79" fill-rule="evenodd"/>

  
	<path d="M 768 161 C 768 161.550, 768.477 162, 769.059 162 C 769.641 162, 769.840 161.550, 769.500 161 C 769.160 160.450, 768.684 160, 768.441 160 C 768.198 160, 768 160.450, 768 161 M 803.250 163.347 C 801.462 163.934, 800 164.771, 800 165.207 C 800 165.643, 799.100 166, 798 166 C 796.900 166, 796 166.450, 796 167 C 796 167.550, 794.650 168, 793 168 C 791.350 168, 790 168.450, 790 169 C 790 169.550, 789.281 170, 788.401 170 C 787.522 170, 785.541 171.350, 784 173 C 782.459 174.650, 780.478 176, 779.599 176 C 778.719 176, 778 176.719, 778 177.599 C 778 178.478, 776.650 180.459, 775 182 C 773.350 183.541, 772 185.522, 772 186.401 C 772 187.281, 771.550 188, 771 188 C 770.450 188, 770 188.900, 770 190 C 770 191.100, 769.550 192, 769 192 C 768.450 192, 768 193.800, 768 196 C 768 198.200, 767.550 200, 767 200 C 766.450 200, 766 201.800, 766 204 C 766 207.885, 767.233 209.287, 768.417 206.750 C 768.883 205.750, 769.117 205.750, 769.583 206.750 C 770.033 207.715, 778.051 208, 804.697 208 C 838.617 208, 839.301 208.040, 843.356 210.250 C 848.644 213.132, 850.521 215.391, 852.445 221.188 C 854.230 226.568, 854.446 230, 853 230 C 852.450 230, 852 230.694, 852 231.542 C 852 232.390, 851.100 234.050, 850 235.230 C 848.900 236.411, 848 237.967, 848 238.689 C 848 239.479, 846.808 240, 845 240 C 843.350 240, 842 240.465, 842 241.034 C 842 241.734, 829.692 241.977, 804 241.784 L 765.999 241.500 766 244.750 C 766 246.537, 765.550 248, 765 248 C 764.450 248, 764 248.900, 764 250 C 764 251.100, 764.450 252, 765 252 C 765.550 252, 766 253.350, 766 255 C 766 256.650, 765.550 258, 765 258 C 764.378 258, 764 263.667, 764 273 C 764 282.333, 764.378 288, 765 288 C 765.550 288, 766 288.900, 766 290 C 766 291.100, 766.450 292, 767 292 C 767.550 292, 768 291.550, 768 291 C 768 290.350, 782 290, 808 290 C 834 290, 848 289.650, 848 289 C 848 288.450, 849.998 288, 852.441 288 C 854.884 288, 857.160 287.550, 857.500 287 C 857.840 286.450, 859.441 286, 861.059 286 C 862.677 286, 864 285.550, 864 285 C 864 284.450, 864.900 284, 866 284 C 867.100 284, 868 283.550, 868 283 C 868 282.450, 868.675 282, 869.500 282 C 870.325 282, 871 281.550, 871 281 C 871 280.450, 871.675 280, 872.500 280 C 873.325 280, 874 279.605, 874 279.121 C 874 278.638, 875.350 277.683, 877 277 C 878.828 276.243, 880 275.023, 880 273.879 C 880 272.837, 880.700 272, 881.571 272 C 883.341 272, 884.295 271.112, 888.318 265.727 C 889.868 263.652, 892.231 260.860, 893.568 259.523 C 894.906 258.185, 896 256.602, 896 256.004 C 896 255.406, 896.900 253.950, 898 252.770 C 899.100 251.589, 900 249.583, 900 248.311 C 900 247.040, 900.450 246, 901 246 C 901.550 246, 902 244.650, 902 243 C 902 241.350, 902.450 240, 903 240 C 903.619 240, 904 234.686, 904 226.059 C 904 217.844, 903.589 211.864, 903 211.500 C 902.450 211.160, 902 209.810, 902 208.500 C 902 207.190, 901.550 205.840, 901 205.500 C 900.450 205.160, 900 203.883, 900 202.662 C 900 201.441, 899.100 199.793, 898 199 C 896.900 198.207, 896 197.013, 896 196.346 C 896 192.550, 885.928 179.747, 881.949 178.484 C 880.877 178.144, 880 177.446, 880 176.933 C 880 176.420, 879.148 176, 878.107 176 C 877.066 176, 875.968 175.359, 875.667 174.576 C 875.367 173.792, 873.519 172.391, 871.560 171.462 C 869.602 170.532, 868 169.373, 868 168.886 C 868 168.399, 867.127 168, 866.059 168 C 864.991 168, 863.840 167.550, 863.500 167 C 863.160 166.450, 861.649 166, 860.141 166 C 858.633 166, 856.972 165.606, 856.450 165.125 C 853.481 162.390, 810.543 160.955, 803.250 163.347 M 585.417 243.317 C 584.150 244.769, 583.943 248.153, 585.167 247.397 C 585.625 247.114, 586 247.352, 586 247.928 C 586 248.503, 587.462 249.601, 589.250 250.369 C 591.038 251.137, 593.494 252.718, 594.708 253.882 C 595.923 255.047, 597.400 256, 597.992 256 C 598.583 256, 600.604 257.538, 602.483 259.417 C 604.363 261.296, 606.823 263.126, 607.950 263.484 C 609.085 263.844, 610 264.997, 610 266.067 C 610 267.130, 610.450 268, 611 268 C 611.550 268, 612 268.900, 612 270 C 612 271.100, 612.493 272, 613.097 272 C 614.200 272, 613.906 277.882, 612.458 284.750 L 611.773 288 650.519 288 L 689.265 288 691.267 290.250 C 692.625 291.776, 693.414 292.098, 693.718 291.250 C 693.965 290.563, 695.286 290, 696.655 290 C 701.743 290, 702 288.845, 702 266 C 702 249.010, 701.719 244.577, 700.571 243.429 C 698.597 241.455, 587.136 241.347, 585.417 243.317 M 403.686 401.691 C 402.138 402.505, 400.596 403.920, 400.259 404.835 C 399.922 405.751, 399.364 406.725, 399.019 407 C 396.264 409.199, 396.460 421.963, 399.250 421.992 C 399.663 421.996, 400.004 422.788, 400.008 423.750 C 400.015 425.443, 404.042 428, 406.699 428 C 407.415 428, 408 428.499, 408 429.109 C 408 430.733, 420.646 428.497, 422.618 426.524 C 423.851 425.292, 423.770 416.891, 422.496 413.750 C 421.720 411.837, 416 411.229, 416 413.059 C 416 413.641, 415.577 413.856, 415.060 413.537 C 414.542 413.217, 413.161 413.978, 411.991 415.228 L 409.862 417.500 412.931 417.813 C 417.845 418.315, 417.239 422.011, 412.250 421.968 C 404.237 421.900, 401.520 413.337, 407.587 407.271 C 409.090 405.767, 414 405.560, 414 407 C 414 407.550, 414.637 408, 415.417 408 C 416.196 408, 417.038 408.563, 417.288 409.250 C 417.631 410.193, 418.204 410.228, 419.621 409.393 C 423.275 407.239, 422.039 402, 417.878 402 C 416.845 402, 416 401.550, 416 401 C 416 399.492, 406.897 400.003, 403.686 401.691 M 428 408 C 428 412.633, 427.582 416, 427.006 416 C 425.914 416, 426.108 418.780, 427.338 420.750 C 427.777 421.454, 427.656 422, 427.059 422 C 425.504 422, 425.769 425.226, 427.532 427.742 C 429.577 430.662, 434 428.971, 434 425.268 C 434 421.629, 436.553 419.410, 438.500 421.357 C 439.325 422.182, 440 423.366, 440 423.988 C 440 424.609, 440.450 424.840, 441 424.500 C 441.550 424.160, 442 424.732, 442 425.772 C 442 428.793, 446.629 430.799, 448.737 428.692 C 450.047 427.382, 450.150 426.750, 449.207 425.807 C 448.543 425.143, 448 423.565, 448 422.300 C 448 421.035, 447.550 420, 447 420 C 446.450 420, 446 419.100, 446 418 C 446 416.900, 446.647 416, 447.439 416 C 448.921 416, 450.527 408.963, 449.846 405.448 C 449.198 402.104, 444.078 400.152, 435.750 400.073 L 428 400 428 408 M 453.318 403.743 C 451.644 409.092, 453.655 422.690, 456.555 425.622 C 462.185 431.316, 469.488 431.712, 474.600 426.600 C 477.780 423.420, 478 422.773, 478 416.600 C 478 412.867, 478.434 410, 479 410 C 479.550 410, 480 408.650, 480 407 C 480 405.350, 479.550 404, 479 404 C 478.450 404, 478 403.070, 478 401.934 C 478 400.269, 477.465 399.929, 475.250 400.184 C 472.543 400.495, 472.495 400.621, 472.208 408.250 C 472.047 412.512, 471.485 416, 470.958 416 C 470.431 416, 470 417.350, 470 419 C 470 421.833, 469.778 422, 466 422 C 462.667 422, 462 421.667, 462 420 C 462 418.900, 461.550 418, 461 418 C 460.421 418, 460 414.810, 460 410.429 C 460 400.008, 455.802 395.808, 453.318 403.743 M 486 401 C 486 401.550, 485.065 402, 483.922 402 C 481.909 402, 481.854 402.397, 482.195 414.473 C 482.580 428.146, 483.146 429.566, 487.798 428.544 C 490.632 427.922, 490.766 427.673, 490.266 423.943 L 489.737 420 495.632 420 L 501.528 420 503.261 416 C 505.092 411.775, 505.603 411.214, 505.768 413.250 C 506.273 419.467, 511.069 428, 514.059 428 C 514.591 428, 515.883 428.535, 516.929 429.188 C 519.257 430.641, 526.583 428.600, 529.117 425.792 C 530.007 424.806, 531.469 424, 532.367 424 C 534.612 424, 535.120 408.985, 532.903 408.167 C 532.406 407.983, 532 407.175, 532 406.371 C 532 403.004, 527.302 400, 522.034 400 C 515.611 400, 508.068 403.545, 508.027 406.583 C 508.012 407.729, 507.721 408.945, 507.381 409.286 C 506.493 410.173, 504 407.434, 504 405.571 C 504 404.707, 503.550 404, 503 404 C 502.450 404, 502 403.100, 502 402 C 502 400.167, 501.333 400, 494 400 C 489.333 400, 486 400.417, 486 401 M 434 409.940 C 434 414.378, 434.826 414.814, 439.329 412.750 C 443.697 410.748, 442.699 406.599, 437.750 406.190 L 434 405.879 434 409.940 M 490 409.481 C 490 413.396, 493.652 415.363, 496.513 412.989 C 499.641 410.393, 497.163 406, 492.571 406 C 490.302 406, 490 406.409, 490 409.481 M 517.200 407.200 C 516.540 407.860, 516 409.210, 516 410.200 C 516 411.333, 515.259 412, 514 412 C 512.900 412, 512 412.450, 512 413 C 512 413.550, 512.450 414, 513 414 C 513.550 414, 514 415.157, 514 416.571 C 514 420.038, 516.191 422, 520.061 422 C 523.539 422, 527.439 418.587, 526.565 416.308 C 526.289 415.589, 526.499 415, 527.031 415 C 528.608 415, 528.138 412.858, 526.181 411.117 C 525.180 410.228, 524.069 408.712, 523.712 407.750 C 522.968 405.744, 518.992 405.408, 517.200 407.200 M 640.500 463 C 640.840 463.550, 641.316 464, 641.559 464 C 641.802 464, 642 463.550, 642 463 C 642 462.450, 641.523 462, 640.941 462 C 640.359 462, 640.160 462.450, 640.500 463" stroke="none" fill="#a3e635" fill-rule="evenodd"/>

</svg>