<?xml version="1.0" encoding="utf-8"?>
<svg version="1.1" xmlns="http://www.w3.org/2000/svg" width="1596" height="1137" viewBox="225 455 1596 1137" preserveAspectRatio="xMidYMid meet">
  
	<path d="M 677.500 455.593 C 596.646 459.483, 531.521 479.249, 473.500 517.508 C 433.344 543.986, 406.419 572.731, 386.394 610.500 C 369.606 642.164, 360.607 675.914, 359.329 712 C 357.567 761.774, 370.759 807.649, 398.774 849.165 C 416.548 875.504, 441.952 900.479, 469 918.202 C 540.230 964.877, 637.421 982.705, 732 966.447 C 761.288 961.412, 797.869 951.065, 827.781 939.354 C 844.476 932.817, 847.537 931.937, 848.883 933.283 C 849.516 933.916, 850 937.801, 850 942.245 C 850 949.349, 850.244 950.335, 852.585 952.676 L 855.170 955.261 884.835 954.711 C 922.901 954.005, 934.215 951.841, 954.620 941.364 C 976.040 930.365, 995.465 909.965, 1005.065 888.387 C 1006.750 884.599, 1008.747 880.141, 1009.502 878.480 C 1015.012 866.363, 1018.690 845.048, 1019.647 819.690 L 1020.314 802 918.241 802 C 837.559 802, 816.044 802.262, 815.583 803.250 C 815.117 804.250, 814.883 804.250, 814.417 803.250 C 813.271 800.795, 810.815 802.095, 804.205 808.653 C 778.527 834.132, 742.996 848.167, 700.266 849.709 C 607.039 853.073, 532 791.838, 532 712.396 C 532 673.122, 549.256 638.504, 582.500 611.087 C 602.895 594.268, 621.591 584.644, 645.509 578.656 C 670.771 572.330, 701.789 572.452, 731 578.990 C 769.424 587.590, 798.237 607.709, 816.052 638.378 C 818.005 641.741, 820.705 645.050, 822.052 645.732 C 823.945 646.690, 845.120 646.971, 915.500 646.972 C 965.550 646.972, 1007.547 646.692, 1008.827 646.350 C 1014.477 644.837, 1013.608 639.220, 1005.057 621.960 C 979.199 569.768, 939.991 530.195, 885 500.787 C 879.226 497.698, 872.582 494.581, 855.500 486.946 C 830.669 475.848, 788.225 464.241, 755.500 459.600 C 732.999 456.410, 697.950 454.609, 677.500 455.593 M 1172.242 469.964 C 1126.101 474.144, 1086.211 500.779, 1066.071 540.854 C 1060.243 552.452, 1056.396 563.304, 1053.867 575.288 L 1051.711 585.500 1051.424 768.552 C 1051.258 874.849, 1051.512 952.212, 1052.031 953.052 C 1052.763 954.238, 1057.406 954.558, 1077.712 954.822 C 1116.473 955.327, 1132.303 952.821, 1152.319 943.013 C 1180.481 929.213, 1202.567 903.425, 1212.971 872.196 C 1218.817 854.650, 1220.541 839.332, 1221.643 795.146 C 1222.149 774.831, 1222.028 768, 1221.160 768 C 1220.377 768, 1220 765.402, 1220 760 C 1220 755.600, 1220.427 752, 1220.949 752 C 1221.540 752, 1221.901 720.263, 1221.906 667.835 C 1221.913 600.120, 1222.167 583.510, 1223.207 582.851 C 1224.207 582.217, 1224.216 582.027, 1223.250 582.015 C 1222.461 582.006, 1222 580.525, 1222 578 C 1222 575.800, 1222.450 574, 1223 574 C 1223.550 574, 1224 572.200, 1224 570 C 1224 567.800, 1224.450 566, 1225 566 C 1225.550 566, 1226 564.200, 1226 562 C 1226 559.800, 1226.450 558, 1227 558 C 1227.550 558, 1228 556.650, 1228 555 C 1228 553.350, 1228.450 552, 1229 552 C 1229.550 552, 1230 550.200, 1230 548 C 1230 545.800, 1230.450 544, 1231 544 C 1231.550 544, 1232 543.100, 1232 542 C 1232 540.900, 1232.450 540, 1233 540 C 1233.550 540, 1234 539.100, 1234 538 C 1234 536.900, 1234.450 536, 1235 536 C 1235.550 536, 1236 535.100, 1236 534 C 1236 532.900, 1236.450 532, 1237 532 C 1237.550 532, 1238 531.199, 1238 530.221 C 1238 529.242, 1238.900 527.793, 1240 527 C 1241.100 526.207, 1242 524.857, 1242 524 C 1242 523.143, 1242.900 521.793, 1244 521 C 1245.100 520.207, 1246 518.857, 1246 518 C 1246 517.143, 1246.900 515.793, 1248 515 C 1249.100 514.207, 1250 512.974, 1250 512.261 C 1250 510.677, 1262.517 498, 1264.080 498 C 1264.695 498, 1266.459 496.650, 1268 495 C 1269.541 493.350, 1271.423 492, 1272.180 492 C 1272.938 492, 1274.207 491.100, 1275 490 C 1275.793 488.900, 1277.242 488, 1278.221 488 C 1279.199 488, 1280 487.550, 1280 487 C 1280 486.450, 1280.900 486, 1282 486 C 1283.100 486, 1284 485.550, 1284 485 C 1284 484.450, 1284.900 484, 1286 484 C 1287.100 484, 1288 483.550, 1288 483 C 1288 482.450, 1288.900 482, 1290 482 C 1291.100 482, 1292 481.550, 1292 481 C 1292 480.450, 1292.900 480, 1294 480 C 1295.100 480, 1296 479.550, 1296 479 C 1296 478.450, 1296.900 478, 1298 478 C 1299.100 478, 1300 477.550, 1300 477 C 1300 476.450, 1301.800 476, 1304 476 C 1306.200 476, 1308 475.550, 1308 475 C 1308 474.450, 1308.900 474, 1310 474 C 1311.100 474, 1312 473.550, 1312 473 C 1312 472.450, 1313.800 472, 1316 472 C 1318.200 472, 1320 471.550, 1320 471 C 1320 470.360, 1310.916 470, 1294.750 469.999 C 1280.862 469.998, 1249.700 469.801, 1225.500 469.562 C 1201.300 469.322, 1177.334 469.503, 1172.242 469.964 M 521.500 1208.674 C 500.164 1211.337, 483.330 1219.717, 467.649 1235.480 C 454.485 1248.713, 445.732 1265.774, 443.011 1283.500 C 442.280 1288.268, 442.030 1326.843, 442.228 1404.500 L 442.520 1518.500 444.826 1526.500 C 452.572 1553.373, 472.629 1576.121, 497.248 1585.956 C 509.395 1590.808, 517.199 1592.246, 531.500 1592.265 C 550.695 1592.291, 565.157 1588.302, 579.264 1579.089 C 599.584 1565.818, 613.564 1546.714, 619.212 1524.500 L 621.500 1515.500 621.500 1401.500 C 621.500 1274.581, 621.743 1279.505, 614.655 1262.995 C 606.530 1244.072, 589.910 1226.448, 571.500 1217.232 C 557.445 1210.197, 537.143 1206.722, 521.500 1208.674 M 1723 1208.648 C 1707.742 1210.939, 1698.251 1214.013, 1688.068 1219.960 C 1667.654 1231.883, 1651.760 1252.212, 1645.818 1274 L 1643.500 1282.500 1643.500 1401.500 L 1643.500 1520.500 1646.338 1529 C 1656.954 1560.791, 1681.436 1583.542, 1712.609 1590.583 C 1722.131 1592.734, 1741.716 1592.988, 1750.500 1591.074 C 1768.855 1587.076, 1783.510 1578.882, 1797 1565.074 C 1807.006 1554.832, 1813.534 1544.324, 1818.206 1530.938 L 1821.500 1521.500 1821.819 1405 C 1822.159 1281.133, 1822.161 1281.214, 1817.343 1267.788 C 1809.535 1246.030, 1790.794 1225.431, 1770.743 1216.566 C 1755.233 1209.708, 1736.559 1206.611, 1723 1208.648 M 225.997 1213.500 C 225.996 1213.775, 225.993 1298.037, 225.992 1400.750 L 225.989 1587.500 254.494 1587.765 L 283 1588.031 283 1517.618 L 283 1447.205 307.250 1446.745 C 328.477 1446.341, 332.435 1446.009, 339 1444.075 C 369.970 1434.955, 394.203 1409.172, 401.643 1377.425 C 403.294 1370.381, 403.500 1364.942, 403.498 1328.500 C 403.496 1289.310, 403.397 1287.111, 401.253 1278.693 C 396.698 1260.806, 389.242 1247.281, 377.844 1236.231 C 365.361 1224.130, 349.555 1216.714, 330.636 1214.082 C 322.945 1213.013, 226.003 1212.473, 225.997 1213.500 M 671 1400.432 L 671 1588 699.500 1588 L 728 1588 728 1517.500 L 728 1447 746.433 1447 C 763.128 1447, 764.913 1447.165, 765.373 1448.750 C 765.652 1449.713, 769.485 1465.350, 773.891 1483.500 C 778.296 1501.650, 784.582 1527.525, 787.859 1541 C 791.136 1554.475, 795.023 1570.563, 796.496 1576.750 L 799.174 1588 830.087 1588 C 847.089 1588, 860.992 1587.888, 860.983 1587.750 C 860.973 1587.612, 856.472 1569.950, 850.980 1548.500 C 845.489 1527.050, 836.230 1490.827, 830.405 1468.005 C 824.580 1445.182, 819.577 1426.125, 819.287 1425.655 C 818.997 1425.186, 821.213 1422.259, 824.212 1419.151 C 831.770 1411.319, 835.352 1406.434, 839.431 1398.403 C 848.659 1380.235, 849.271 1375.281, 848.753 1323 C 848.272 1274.550, 847.879 1271.625, 839.558 1254.500 C 831.070 1237.032, 817.781 1225.334, 799.022 1218.817 C 784.566 1213.795, 783.722 1213.732, 725.750 1213.285 L 671 1212.863 671 1400.432 M 890.235 1241.590 L 890.500 1270.180 918.562 1270.049 C 933.996 1269.977, 947.383 1270.210, 948.312 1270.566 C 949.886 1271.170, 950 1281.882, 950 1429.607 L 950 1588 978.497 1588 L 1006.994 1588 1007.247 1429.250 L 1007.500 1270.500 1037.250 1270.235 L 1067 1269.970 1067 1241.485 L 1067 1213 978.485 1213 L 889.969 1213 890.235 1241.590 M 1112 1400.500 L 1112 1588 1140.500 1588 L 1169 1588 1169 1400.500 L 1169 1213 1140.500 1213 L 1112 1213 1112 1400.500 M 1219 1400.500 L 1219 1588 1296.516 1588 L 1374.031 1588 1373.766 1559.750 L 1373.500 1531.500 1324.750 1531.240 L 1276 1530.981 1276 1371.990 L 1276 1213 1247.500 1213 L 1219 1213 1219 1400.500 M 1412 1400.500 L 1412 1588 1440.494 1588 L 1468.988 1588 1469.244 1508.750 L 1469.500 1429.500 1502.750 1429.237 L 1536 1428.973 1536 1508.502 L 1536 1588.031 1564.750 1587.765 L 1593.500 1587.500 1593.500 1400.500 L 1593.500 1213.500 1564.750 1213.235 L 1536 1212.969 1536 1292.485 L 1536 1372 1502.500 1372 L 1469 1372 1469 1292.500 L 1469 1213 1440.500 1213 L 1412 1213 1412 1400.500 M 522.500 1265.879 C 513.572 1268.238, 504.367 1275.809, 500.649 1283.851 L 498.500 1288.500 498.233 1398.167 C 497.970 1505.937, 498 1507.925, 499.977 1513.167 C 502.727 1520.460, 508.589 1526.958, 515.641 1530.531 C 520.778 1533.134, 522.547 1533.499, 530 1533.490 C 536.521 1533.483, 539.547 1532.992, 543 1531.382 C 549.623 1528.294, 555.247 1522.842, 558.566 1516.291 L 561.500 1510.500 561.500 1399.500 L 561.500 1288.500 559.330 1283.804 C 556.525 1277.734, 549.819 1271.076, 543.500 1268.088 C 538.134 1265.550, 527.842 1264.468, 522.500 1265.879 M 1720.293 1267.015 C 1713.159 1269.349, 1705.724 1275.829, 1701.856 1283.082 L 1699.500 1287.500 1699.500 1399.500 L 1699.500 1511.500 1701.793 1515.795 C 1705.328 1522.415, 1710.623 1527.667, 1716.839 1530.720 C 1724.436 1534.451, 1736.930 1534.686, 1744.188 1531.236 C 1750.276 1528.341, 1756.946 1521.704, 1760.040 1515.463 L 1762.500 1510.500 1762.500 1399.500 L 1762.500 1288.500 1760.292 1283.766 C 1757.511 1277.801, 1750.830 1271.064, 1744.801 1268.146 C 1738.059 1264.882, 1728.201 1264.427, 1720.293 1267.015 M 283.242 1330.649 L 283.500 1390.500 303.500 1390.473 C 323.011 1390.446, 323.640 1390.381, 329.220 1387.792 C 336.753 1384.297, 343.310 1377.459, 345.985 1370.311 C 348.007 1364.906, 348.080 1363.230, 347.796 1328.590 L 347.500 1292.500 344.581 1287.232 C 342.976 1284.335, 339.736 1280.385, 337.380 1278.455 C 329.976 1272.388, 326.864 1271.720, 303.742 1271.234 L 282.984 1270.798 283.242 1330.649 M 728 1331 L 728 1391 744.250 1390.994 C 761.782 1390.988, 769.965 1390.059, 775.458 1387.453 C 781.686 1384.498, 787.508 1378.477, 790.587 1371.808 L 793.500 1365.500 793.816 1334.677 C 794.222 1294.967, 792.879 1286.309, 785.204 1279.152 C 778.170 1272.594, 770.582 1271.050, 745.250 1271.020 L 728 1271 728 1331" stroke="none" fill="#002d79" fill-rule="evenodd"/>

  
	<path d="M 1355.500 469.033 C 1352.750 469.468, 1343.638 469.864, 1335.250 469.912 C 1325.808 469.967, 1320 470.381, 1320 471 C 1320 471.550, 1318.200 472, 1316 472 C 1313.800 472, 1312 472.450, 1312 473 C 1312 473.550, 1311.100 474, 1310 474 C 1308.900 474, 1308 474.450, 1308 475 C 1308 475.550, 1306.200 476, 1304 476 C 1301.800 476, 1300 476.450, 1300 477 C 1300 477.550, 1299.100 478, 1298 478 C 1296.900 478, 1296 478.450, 1296 479 C 1296 479.550, 1295.100 480, 1294 480 C 1292.900 480, 1292 480.450, 1292 481 C 1292 481.550, 1291.100 482, 1290 482 C 1288.900 482, 1288 482.450, 1288 483 C 1288 483.550, 1287.100 484, 1286 484 C 1284.900 484, 1284 484.450, 1284 485 C 1284 485.550, 1283.100 486, 1282 486 C 1280.900 486, 1280 486.450, 1280 487 C 1280 487.550, 1279.199 488, 1278.221 488 C 1277.242 488, 1275.793 488.900, 1275 490 C 1274.207 491.100, 1272.938 492, 1272.180 492 C 1271.423 492, 1269.541 493.350, 1268 495 C 1266.459 496.650, 1264.695 498, 1264.080 498 C 1262.517 498, 1250 510.677, 1250 512.261 C 1250 512.974, 1249.100 514.207, 1248 515 C 1246.900 515.793, 1246 517.143, 1246 518 C 1246 518.857, 1245.100 520.207, 1244 521 C 1242.900 521.793, 1242 523.143, 1242 524 C 1242 524.857, 1241.100 526.207, 1240 527 C 1238.900 527.793, 1238 529.242, 1238 530.221 C 1238 531.199, 1237.550 532, 1237 532 C 1236.450 532, 1236 532.900, 1236 534 C 1236 535.100, 1235.550 536, 1235 536 C 1234.450 536, 1234 536.900, 1234 538 C 1234 539.100, 1233.550 540, 1233 540 C 1232.450 540, 1232 540.900, 1232 542 C 1232 543.100, 1231.550 544, 1231 544 C 1230.450 544, 1230 545.800, 1230 548 C 1230 550.200, 1229.550 552, 1229 552 C 1228.450 552, 1228 553.350, 1228 555 C 1228 556.650, 1227.550 558, 1227 558 C 1226.450 558, 1226 559.800, 1226 562 C 1226 564.200, 1225.550 566, 1225 566 C 1224.450 566, 1224 567.800, 1224 570 C 1224 572.200, 1223.550 574, 1223 574 C 1222.450 574, 1222 575.752, 1222 577.893 C 1222 580.614, 1222.527 582.038, 1223.750 582.625 C 1224.713 583.086, 1269.375 583.751, 1323 584.102 C 1376.625 584.453, 1422.188 585.072, 1424.250 585.479 C 1426.313 585.886, 1428 586.620, 1428 587.109 C 1428 587.599, 1429.350 588, 1431 588 C 1432.650 588, 1434 588.450, 1434 589 C 1434 589.550, 1434.718 590, 1435.596 590 C 1436.473 590, 1438.611 590.998, 1440.346 592.218 C 1445.382 595.758, 1456 606.775, 1456 608.460 C 1456 609.307, 1456.450 610, 1457 610 C 1457.550 610, 1458 610.900, 1458 612 C 1458 613.100, 1458.450 614, 1459 614 C 1459.550 614, 1460 615.313, 1460 616.917 C 1460 618.521, 1460.563 620.021, 1461.250 620.250 C 1462.168 620.557, 1462.500 624.280, 1462.500 634.284 C 1462.500 643.844, 1462.128 648.272, 1461.250 649.150 C 1460.563 649.838, 1460 651.350, 1460 652.511 C 1460 653.673, 1459.100 655.589, 1458 656.770 C 1456.900 657.950, 1456 659.395, 1456 659.980 C 1456 661.629, 1445.233 672, 1443.522 672 C 1442.685 672, 1441.996 672.337, 1441.992 672.750 C 1441.983 673.648, 1437.140 676, 1435.301 676 C 1434.585 676, 1434 676.450, 1434 677 C 1434 677.550, 1432.902 678, 1431.559 678 C 1430.216 678, 1428.881 678.383, 1428.592 678.851 C 1427.554 680.530, 1404.114 680.986, 1313.750 681.085 L 1222 681.186 1222 716.593 C 1222 739.531, 1221.648 752, 1221 752 C 1220.417 752, 1220 755.333, 1220 760 C 1220 764.667, 1220.417 768, 1221 768 C 1221.628 768, 1222 774.465, 1222 785.394 L 1222 802.787 1238.250 803.459 C 1263.242 804.493, 1431.292 803.421, 1439.500 802.176 C 1447.789 800.918, 1454.815 799.550, 1461 797.990 C 1463.475 797.366, 1466.963 796.614, 1468.750 796.318 C 1470.537 796.023, 1472 795.380, 1472 794.891 C 1472 794.401, 1473.350 794, 1475 794 C 1476.650 794, 1478 793.550, 1478 793 C 1478 792.450, 1478.873 792, 1479.941 792 C 1481.009 792, 1482.160 791.550, 1482.500 791 C 1482.840 790.450, 1484.216 790, 1485.559 790 C 1486.902 790, 1488 789.550, 1488 789 C 1488 788.450, 1488.585 788, 1489.301 788 C 1491.140 788, 1495.983 785.648, 1495.992 784.750 C 1495.996 784.337, 1496.900 784, 1498 784 C 1499.100 784, 1500 783.550, 1500 783 C 1500 782.450, 1500.475 782, 1501.055 782 C 1501.635 782, 1504.760 780.200, 1508 778 C 1511.240 775.800, 1514.144 774, 1514.454 774 C 1514.764 774, 1516.431 772.650, 1518.157 771 C 1519.884 769.350, 1521.700 768, 1522.194 768 C 1522.687 768, 1524.139 766.987, 1525.420 765.750 C 1528.575 762.702, 1531.914 760, 1532.526 760 C 1533.350 760, 1550 743.095, 1550 742.259 C 1550 741.836, 1551.800 739.578, 1554 737.243 C 1556.200 734.907, 1558 732.632, 1558 732.187 C 1558 731.741, 1558.800 730.505, 1559.777 729.439 C 1560.755 728.372, 1562.646 725.925, 1563.980 724 C 1565.314 722.075, 1567.214 719.772, 1568.203 718.883 C 1569.191 717.993, 1570 716.568, 1570 715.716 C 1570 714.864, 1570.338 714.017, 1570.750 713.833 C 1571.162 713.650, 1572.583 711.362, 1573.907 708.750 C 1575.231 706.138, 1576.694 704, 1577.157 704 C 1577.621 704, 1578 703.320, 1578 702.489 C 1578 701.083, 1579.224 698.007, 1584.076 687.223 C 1585.134 684.871, 1586 682.085, 1586 681.032 C 1586 679.979, 1586.450 678.840, 1587 678.500 C 1587.550 678.160, 1588 676.559, 1588 674.941 C 1588 673.323, 1588.450 672, 1589 672 C 1589.550 672, 1590 670.200, 1590 668 C 1590 665.800, 1590.412 664, 1590.915 664 C 1594.055 664, 1593.992 605.349, 1590.849 603.407 C 1590.382 603.118, 1590 601.703, 1590 600.262 C 1590 598.821, 1589.568 596.260, 1589.040 594.571 C 1588.512 592.882, 1587.513 589.362, 1586.821 586.750 C 1586.129 584.138, 1585.212 582, 1584.782 582 C 1584.352 582, 1584 580.650, 1584 579 C 1584 577.350, 1583.550 576, 1583 576 C 1582.450 576, 1582 575.364, 1582 574.587 C 1582 572.904, 1571.838 552.647, 1570.753 552.167 C 1570.339 551.983, 1570 551.070, 1570 550.137 C 1570 549.205, 1569.100 547.793, 1568 547 C 1566.900 546.207, 1566 544.938, 1566 544.180 C 1566 543.423, 1564.650 541.541, 1563 540 C 1561.350 538.459, 1560 536.666, 1560 536.016 C 1560 534.611, 1531.572 506, 1530.175 506 C 1529.645 506, 1527.766 504.650, 1526 503 C 1524.234 501.350, 1522.260 500, 1521.615 500 C 1520.970 500, 1519.793 499.100, 1519 498 C 1518.207 496.900, 1516.758 496, 1515.779 496 C 1514.801 496, 1514 495.550, 1514 495 C 1514 494.450, 1513.410 494, 1512.689 494 C 1511.967 494, 1510.411 493.100, 1509.230 492 C 1508.050 490.900, 1506.390 490, 1505.542 490 C 1504.694 490, 1504 489.550, 1504 489 C 1504 488.450, 1503.100 488, 1502 488 C 1500.900 488, 1500 487.550, 1500 487 C 1500 486.450, 1499.100 486, 1498 486 C 1496.900 486, 1496 485.550, 1496 485 C 1496 484.450, 1495.100 484, 1494 484 C 1492.900 484, 1492 483.631, 1492 483.181 C 1492 482.730, 1489.750 481.749, 1487 481 C 1484.250 480.251, 1482 479.270, 1482 478.819 C 1482 478.369, 1480.452 478, 1478.559 478 C 1476.666 478, 1474.871 477.600, 1474.568 477.110 C 1474.266 476.621, 1472.552 475.979, 1470.759 475.683 C 1468.967 475.387, 1465.475 474.668, 1463 474.086 C 1456.220 472.492, 1445.750 470.984, 1433.500 469.837 C 1419.798 468.554, 1362.264 467.961, 1355.500 469.033 M 744.571 681.646 C 742.162 682.357, 740 684.464, 740 686.099 C 740 687.745, 750.889 698, 752.636 698 C 753.386 698, 754 698.450, 754 699 C 754 699.550, 754.900 700, 756 700 C 757.100 700, 758 700.344, 758 700.764 C 758 701.184, 759.688 702.296, 761.750 703.234 C 765.932 705.136, 771.235 708.176, 772 709.110 C 772.275 709.446, 773.986 710.482, 775.801 711.413 C 777.617 712.343, 779.353 713.756, 779.658 714.552 C 779.964 715.349, 780.966 716, 781.886 716 C 782.806 716, 784.207 716.900, 785 718 C 785.793 719.100, 787.042 720, 787.776 720 C 788.510 720, 791.673 722.609, 794.805 725.799 C 797.937 728.988, 801.288 731.899, 802.250 732.267 C 803.212 732.636, 804 733.416, 804 734.002 C 804 734.588, 805.538 736.604, 807.417 738.483 C 809.296 740.363, 811.126 742.823, 811.484 743.950 C 811.842 745.078, 812.554 746, 813.067 746 C 813.580 746, 814 746.900, 814 748 C 814 749.100, 814.352 750, 814.782 750 C 815.212 750, 816.129 752.138, 816.821 754.750 C 817.513 757.362, 818.512 760.882, 819.040 762.571 C 820.861 768.394, 819.157 786, 816.773 786 C 816.348 786, 816 787.350, 816 789 C 816 790.650, 815.550 792, 815 792 C 814.450 792, 814 792.862, 814 793.917 C 814 794.971, 813.620 795.983, 813.155 796.167 C 812.690 796.350, 812.006 797.737, 811.636 799.250 C 811.137 801.286, 811.335 802, 812.398 802 C 813.187 802, 814.096 802.563, 814.417 803.250 C 814.882 804.247, 815.119 804.245, 815.586 803.241 C 816.053 802.239, 837.069 802.013, 918.336 802.133 C 974.526 802.217, 1026.125 802.594, 1033 802.972 C 1039.875 803.350, 1046.963 803.265, 1048.750 802.783 L 1052 801.906 1052 741.953 L 1052 682 923.162 682 C 852.301 682, 783.563 681.792, 770.412 681.538 C 757.260 681.284, 745.632 681.333, 744.571 681.646 M 265 1104.959 C 264.175 1105.515, 262.262 1105.976, 260.750 1105.985 C 259.238 1105.993, 258 1106.450, 258 1107 C 258 1107.550, 257.306 1108, 256.458 1108 C 255.610 1108, 253.950 1108.900, 252.770 1110 C 251.589 1111.100, 250.033 1112, 249.311 1112 C 248.590 1112, 247.998 1112.563, 247.995 1113.250 C 247.993 1113.938, 246.643 1115.938, 244.995 1117.696 C 243.348 1119.453, 242 1121.591, 242 1122.446 C 242 1123.301, 241.550 1124, 241 1124 C 240.450 1124, 240 1125.098, 240 1126.441 C 240 1127.784, 239.550 1129.160, 239 1129.500 C 238.432 1129.851, 238 1134.844, 238 1141.059 C 238 1147.686, 238.394 1152, 239 1152 C 239.550 1152, 240 1152.590, 240 1153.312 C 240 1158.093, 252.670 1174, 256.478 1174 C 257.315 1174, 258 1174.450, 258 1175 C 258 1175.550, 259.350 1176, 261 1176 C 262.650 1176, 264 1176.450, 264 1177 C 264 1178.416, 275.245 1178.245, 280.016 1176.757 C 282.207 1176.073, 284 1175.173, 284 1174.757 C 284 1174.340, 284.801 1174, 285.779 1174 C 286.758 1174, 288.207 1173.100, 289 1172 C 291.085 1169.107, 292 1169.531, 292 1173.393 C 292 1177.163, 293.196 1178, 298.582 1178 C 300.608 1178, 302.032 1177.491, 302.079 1176.750 C 302.122 1176.063, 302.237 1168.300, 302.334 1159.500 C 302.431 1150.700, 302.733 1142.825, 303.005 1142 C 303.425 1140.726, 301.502 1140.458, 290.250 1140.221 C 282.962 1140.068, 276.942 1140.293, 276.871 1140.721 C 276.276 1144.318, 276.593 1147.709, 277.621 1148.750 C 278.361 1149.498, 281.497 1150, 285.429 1150 L 292 1150 292 1153 C 292 1154.650, 291.657 1156, 291.237 1156 C 290.818 1156, 290.030 1157.013, 289.487 1158.250 C 288.944 1159.487, 287.488 1160.944, 286.250 1161.487 C 285.012 1162.030, 284 1162.818, 284 1163.237 C 284 1163.657, 283.100 1164, 282 1164 C 280.900 1164, 280 1164.450, 280 1165 C 280 1166.411, 270.346 1166.245, 266.071 1164.760 C 264.107 1164.078, 261.825 1162.809, 261 1161.940 C 260.175 1161.072, 258.712 1160.069, 257.750 1159.712 C 256.788 1159.355, 256 1158.374, 256 1157.531 C 256 1156.689, 255.550 1156, 255 1156 C 254.450 1156, 254 1155.100, 254 1154 C 254 1152.900, 253.550 1152, 253 1152 C 252.450 1152, 252 1150.677, 252 1149.059 C 252 1147.441, 251.550 1145.840, 251 1145.500 C 250.450 1145.160, 250 1142.685, 250 1140 C 250 1137.315, 250.450 1134.840, 251 1134.500 C 251.550 1134.160, 252 1133.009, 252 1131.941 C 252 1130.873, 252.450 1130, 253 1130 C 253.550 1130, 254 1129.100, 254 1128 C 254 1126.900, 254.450 1126, 255 1126 C 255.550 1126, 256 1125.293, 256 1124.429 C 256 1122.408, 258.408 1120, 260.429 1120 C 261.293 1120, 262 1119.550, 262 1119 C 262 1118.450, 262.900 1118, 264 1118 C 265.100 1118, 266 1117.550, 266 1117 C 266 1116.429, 269 1116, 273 1116 C 277 1116, 280 1116.429, 280 1117 C 280 1117.550, 280.640 1118, 281.423 1118 C 282.206 1118, 284.610 1119.800, 286.767 1122 C 288.990 1124.268, 291.641 1126, 292.889 1126 C 295.671 1126, 300 1121.750, 300 1119.019 C 300 1116.628, 291.799 1108, 289.526 1108 C 288.687 1108, 288 1107.599, 288 1107.109 C 288 1105.170, 267.529 1103.256, 265 1104.959 M 318 1139.800 C 318 1166.311, 318.311 1175.911, 319.200 1176.800 C 321.043 1178.643, 329.652 1178.349, 330.393 1176.418 C 330.727 1175.548, 331 1170.410, 331 1165 C 331 1159.590, 331.273 1154.452, 331.607 1153.582 C 332.074 1152.365, 333.706 1152, 338.678 1152 C 345.076 1152, 348 1153.274, 348 1156.061 C 348 1156.724, 348.819 1157.993, 349.821 1158.883 C 350.822 1159.772, 352.734 1162.525, 354.071 1165 C 355.407 1167.475, 356.837 1169.650, 357.250 1169.833 C 357.663 1170.017, 358 1170.825, 358 1171.629 C 358 1172.433, 359.105 1174.195, 360.455 1175.545 C 362.461 1177.552, 363.905 1178, 368.371 1178 C 371.850 1178, 373.986 1177.546, 374.254 1176.750 C 374.833 1175.029, 373.959 1172, 372.883 1172 C 372.398 1172, 372 1171.306, 372 1170.458 C 372 1169.610, 371.100 1167.950, 370 1166.770 C 368.900 1165.589, 368 1164.033, 368 1163.311 C 368 1162.590, 367.605 1162, 367.121 1162 C 366.638 1162, 365.683 1160.650, 365 1159 C 364.317 1157.350, 363.362 1156, 362.879 1156 C 362.395 1156, 362 1155.138, 362 1154.083 C 362 1153.029, 361.469 1151.990, 360.820 1151.773 C 360.171 1151.557, 362.438 1148.608, 365.858 1145.221 L 372.075 1139.061 372.087 1128.797 C 372.095 1122.509, 371.693 1118.398, 371.050 1118.183 C 370.472 1117.991, 370 1117.144, 370 1116.302 C 370 1114.496, 363.195 1108, 361.305 1108 C 360.587 1108, 360 1107.550, 360 1107 C 360 1106.450, 358.902 1106, 357.559 1106 C 356.216 1106, 354.840 1105.550, 354.500 1105 C 354.125 1104.393, 346.823 1104, 335.941 1104 L 318 1104 318 1139.800 M 388 1128.950 C 388 1142.728, 388.369 1154, 388.819 1154 C 389.270 1154, 390.251 1156.250, 391 1159 C 391.749 1161.750, 392.730 1164, 393.181 1164 C 393.631 1164, 394 1164.690, 394 1165.533 C 394 1170.950, 408.645 1178, 419.897 1178 C 426.052 1178, 434 1176.172, 434 1174.757 C 434 1174.340, 434.619 1174, 435.376 1174 C 437.310 1174, 444.564 1166.959, 445.422 1164.250 C 445.814 1163.013, 446.554 1162, 447.067 1162 C 447.580 1162, 448 1160.845, 448 1159.434 C 448 1158.023, 448.494 1155.946, 449.097 1154.818 C 450.391 1152.401, 451.407 1119.409, 450.471 1110.203 L 449.831 1103.905 444.165 1104.203 L 438.500 1104.500 438.232 1128.250 C 438.066 1142.943, 437.589 1152, 436.982 1152 C 436.442 1152, 436 1152.900, 436 1154 C 436 1155.100, 435.550 1156, 435 1156 C 434.450 1156, 434 1156.695, 434 1157.545 C 434 1159.517, 429.558 1164, 427.604 1164 C 426.787 1164, 425.840 1164.450, 425.500 1165 C 424.645 1166.384, 415.697 1166.256, 412.297 1164.811 C 408.008 1162.988, 404 1158.884, 404 1156.313 C 404 1155.041, 403.598 1154, 403.107 1154 C 401.082 1154, 400.550 1149.405, 400.038 1127.500 L 399.500 1104.500 393.750 1104.200 L 388 1103.900 388 1128.950 M 469.200 1105.200 C 467.480 1106.920, 467.480 1175.080, 469.200 1176.800 C 471.043 1178.643, 479.652 1178.349, 480.393 1176.418 C 480.727 1175.548, 481 1170.410, 481 1165 C 481 1159.590, 481.273 1154.452, 481.607 1153.582 C 482.117 1152.253, 484.273 1152, 495.107 1152 C 503.036 1152, 508 1151.615, 508 1151 C 508 1150.450, 508.690 1150, 509.533 1150 C 512.386 1150, 520 1140.917, 520 1137.514 C 520 1136.681, 520.450 1136, 521 1136 C 521.583 1136, 522 1132.667, 522 1128 C 522 1123.333, 521.583 1120, 521 1120 C 520.450 1120, 520 1119.330, 520 1118.511 C 520 1116.494, 516.061 1111.679, 511.400 1108 C 507.809 1105.165, 500.173 1104, 485.186 1104 C 475.019 1104, 470.025 1104.375, 469.200 1105.200 M 557.547 1104.925 C 557.181 1105.516, 555.784 1106, 554.441 1106 C 553.098 1106, 552 1106.450, 552 1107 C 552 1107.550, 551.100 1108, 550 1108 C 548.900 1108, 548 1108.374, 548 1108.831 C 548 1109.288, 546.763 1110.301, 545.250 1111.081 C 541.569 1112.980, 538 1116.569, 538 1118.371 C 538 1119.175, 537.663 1119.983, 537.250 1120.167 C 535.853 1120.788, 532 1129.174, 532 1131.595 C 532 1132.918, 531.496 1134, 530.880 1134 C 529.780 1134, 530.064 1140.497, 531.535 1149 C 532.145 1152.524, 535.626 1160.505, 537.494 1162.661 C 538.047 1163.299, 540.026 1165.662, 541.891 1167.911 C 543.756 1170.160, 545.894 1172, 546.641 1172 C 547.388 1172, 548.004 1172.338, 548.008 1172.750 C 548.017 1173.648, 552.860 1176, 554.699 1176 C 555.415 1176, 556 1176.450, 556 1177 C 556 1177.592, 559.647 1178, 564.941 1178 C 569.859 1178, 574.160 1177.550, 574.500 1177 C 574.840 1176.450, 576.216 1176, 577.559 1176 C 578.902 1176, 580 1175.550, 580 1175 C 580 1174.450, 580.641 1174, 581.425 1174 C 583.349 1174, 594.561 1162.959, 595.436 1160.202 C 595.820 1158.991, 596.554 1158, 597.067 1158 C 597.580 1158, 598 1156.650, 598 1155 C 598 1153.350, 598.450 1152, 599 1152 C 600.226 1152, 600.366 1132.728, 599.158 1130.236 C 598.694 1129.281, 597.232 1126.250, 595.908 1123.500 C 593.633 1118.776, 586.032 1110, 584.215 1110 C 583.754 1110, 582.480 1109.164, 581.383 1108.142 C 579.008 1105.930, 574.988 1104.973, 565.356 1104.328 C 560.834 1104.025, 557.967 1104.244, 557.547 1104.925 M 331.625 1119.125 C 330.344 1125.531, 330.914 1137.772, 332.571 1139.429 C 335.116 1141.973, 350.256 1141.623, 354.632 1138.918 C 356.484 1137.774, 358 1136.199, 358 1135.418 C 358 1134.638, 358.450 1134, 359 1134 C 360.429 1134, 360.238 1125.397, 358.750 1122.747 C 358.063 1121.523, 356.375 1119.505, 355 1118.262 C 352.751 1116.230, 351.483 1116.002, 342.375 1116.001 L 332.250 1116 331.625 1119.125 M 481.477 1118.250 C 481.168 1119.487, 481.047 1125, 481.208 1130.500 L 481.500 1140.500 492.046 1140.500 C 502.007 1140.500, 502.734 1140.359, 505.131 1137.960 C 507.983 1135.107, 509.105 1130.201, 508.291 1124.136 C 507.852 1120.859, 507.178 1119.804, 504.872 1118.783 C 503.292 1118.084, 502 1117.172, 502 1116.756 C 502 1116.340, 497.509 1116, 492.019 1116 C 482.501 1116, 482.012 1116.104, 481.477 1118.250 M 556.027 1118.175 C 552.120 1120.462, 548.003 1124.861, 548.001 1126.750 C 548.001 1127.438, 547.550 1128, 547 1128 C 546.450 1128, 546 1128.900, 546 1130 C 546 1131.100, 545.550 1132, 545 1132 C 543.546 1132, 543.754 1148.072, 545.250 1151.293 C 545.938 1152.773, 546.837 1153.988, 547.250 1153.992 C 547.663 1153.996, 548 1154.719, 548 1155.599 C 548 1157.880, 553.822 1163.014, 557.169 1163.684 C 558.726 1163.995, 560 1164.644, 560 1165.125 C 560 1165.606, 562.700 1166, 566 1166 C 569.333 1166, 572 1165.556, 572 1165 C 572 1164.450, 572.900 1164, 574 1164 C 575.100 1164, 576 1163.550, 576 1163 C 576 1162.450, 576.696 1162, 577.547 1162 C 578.397 1162, 579.860 1160.653, 580.797 1159.006 C 581.733 1157.360, 582.837 1156.010, 583.250 1156.006 C 583.663 1156.003, 584 1155.100, 584 1154 C 584 1152.900, 584.399 1152, 584.887 1152 C 585.871 1152, 586.873 1147.948, 587.668 1140.750 C 588.010 1137.652, 587.812 1136, 587.097 1136 C 586.493 1136, 586 1134.650, 586 1133 C 586 1131.350, 585.550 1130, 585 1130 C 584.450 1130, 584 1129.100, 584 1128 C 584 1126.900, 583.657 1126, 583.237 1126 C 582.818 1126, 582.030 1124.987, 581.487 1123.750 C 580.944 1122.513, 579.487 1121.056, 578.250 1120.513 C 577.013 1119.970, 576 1119.182, 576 1118.763 C 576 1118.343, 575.100 1118, 574 1118 C 572.900 1118, 572 1117.550, 572 1117 C 572 1115.089, 559.759 1115.990, 556.027 1118.175" stroke="none" fill="#a3e635" fill-rule="evenodd"/>

</svg>