<svg xmlns="http://www.w3.org/2000/svg" width="1421" height="800" viewBox="0 0 1421 800" version="1.1">
	<path d="M 547 159.542 C 540.675 160.237, 531.052 162.007, 525.616 163.474 C 515.616 166.173, 496.780 173.657, 496.167 175.175 C 495.983 175.629, 495.263 176, 494.567 176 C 493.870 176, 491.436 177.350, 489.159 179 C 486.881 180.650, 484.676 182.008, 484.259 182.018 C 482.951 182.050, 476.806 187.228, 469.448 194.500 C 433.718 229.810, 433.502 284.775, 468.955 320.011 C 475.236 326.254, 480.692 331, 481.587 331 C 481.919 331, 483.578 331.988, 485.273 333.195 C 508.042 349.407, 551.093 356.747, 584.500 350.112 C 595.870 347.854, 613.133 342.965, 618.651 340.441 C 623.204 338.359, 625 338.601, 625 341.300 C 625 345.452, 626.672 346, 639.342 346 C 656.985 346, 665.291 343.252, 675.247 334.121 C 684.298 325.820, 690 311.432, 690 296.895 L 690 288.045 650.447 287.773 L 610.894 287.500 608.220 290.291 C 604.168 294.522, 597.321 298.569, 589 301.653 C 579.393 305.213, 558.406 305.672, 549.031 302.528 C 532.244 296.898, 520.072 287.622, 514.515 276.225 C 512.980 273.076, 511.249 269.600, 510.668 268.500 C 510.088 267.400, 509.422 262.370, 509.190 257.323 C 508.705 246.790, 510.488 239.293, 515.165 232.200 C 516.724 229.835, 518 227.658, 518 227.363 C 518 227.068, 521.011 223.947, 524.691 220.426 C 531.440 213.969, 539.711 209.190, 547.750 207.103 C 550.087 206.497, 553.740 205.550, 555.866 205 C 557.992 204.450, 562.293 204, 565.423 204 C 570.760 204, 573.895 204.515, 585 207.219 C 596.103 209.922, 606.997 217.885, 612.161 227.072 C 613.330 229.153, 615.235 231.081, 616.393 231.357 C 619.234 232.034, 683.038 232.072, 685.250 231.398 C 688.354 230.453, 686.297 218.743, 682.750 217.167 C 682.337 216.983, 682 216.351, 682 215.761 C 682 209.068, 648.031 176, 641.156 176 C 640.520 176, 640 175.550, 640 175 C 640 174.450, 639.487 174, 638.860 174 C 638.232 174, 635.870 173.137, 633.610 172.082 C 626.648 168.832, 616.831 165.367, 609.500 163.571 C 605.650 162.628, 600.925 161.437, 599 160.924 C 588.774 158.200, 564.955 157.567, 547 159.542 M 739.975 164.458 C 720.561 168.762, 707.369 182.049, 701.557 203.154 C 699.735 209.770, 699.268 244, 701 244 C 701.636 244, 702 252, 702 266 C 702 280, 701.636 288, 701 288 C 699.910 288, 699.537 341.629, 700.607 344.418 C 701.337 346.319, 723.700 346.717, 730.500 344.949 C 746.573 340.771, 759.365 327.389, 763.429 310.500 C 765.019 303.893, 765.957 288, 764.757 288 C 764.341 288, 764 281.250, 764 273 C 764 263.667, 764.378 258, 765 258 C 765.550 258, 766 256.650, 766 255 C 766 253.350, 765.550 252, 765 252 C 764.450 252, 764 251.100, 764 250 C 764 248.900, 764.337 248, 764.750 248 C 765.163 248, 765.500 237.350, 765.500 224.333 C 765.500 206.288, 765.797 200.567, 766.750 200.250 C 767.466 200.011, 768 198.161, 768 195.917 C 768 193.762, 768.450 192, 769 192 C 769.550 192, 770 191.100, 770 190 C 770 188.900, 770.450 188, 771 188 C 771.550 188, 772 187.281, 772 186.401 C 772 185.522, 773.350 183.541, 775 182 C 776.650 180.459, 778 178.478, 778 177.599 C 778 176.719, 778.719 176, 779.599 176 C 780.478 176, 782.459 174.650, 784 173 C 785.541 171.350, 787.522 170, 788.401 170 C 789.281 170, 790 169.550, 790 169 C 790 168.450, 791.350 168, 793 168 C 794.650 168, 796 167.550, 796 167 C 796 166.450, 796.852 166, 797.893 166 C 798.934 166, 800.035 165.351, 800.339 164.558 C 801.078 162.634, 748.597 162.547, 739.975 164.458 M 421.211 427.601 C 420.501 428.370, 420.362 429, 420.902 429 C 421.940 429, 423.443 427.098, 422.850 426.534 C 422.658 426.351, 421.920 426.831, 421.211 427.601 M 498.500 439.878 C 493.295 441.244, 489.052 443.945, 483.694 449.304 C 473.090 459.911, 472.997 460.452, 473.011 511.799 C 473.019 544.400, 473.323 554.482, 474.402 558 C 476.256 564.042, 478.139 568, 479.161 568 C 479.622 568, 480 568.669, 480 569.487 C 480 571.746, 486.835 577.661, 493 580.738 C 497.774 583.120, 499.689 583.483, 507.500 583.483 C 522.258 583.483, 532.583 576.945, 538.974 563.554 L 542 557.214 542 511.654 C 542 479.840, 541.656 465.250, 540.859 463.297 C 537.673 455.482, 536.578 453.702, 532.220 449.250 C 525.529 442.413, 519.389 439.748, 509.500 439.384 C 505.100 439.223, 500.150 439.445, 498.500 439.878 M 946.500 439.629 C 938.999 441.538, 925 452.498, 925 456.461 C 925 457.216, 924.540 457.987, 923.978 458.174 C 921.342 459.053, 920.625 470.404, 920.610 511.500 C 920.593 561.993, 920.898 563.877, 930.672 573.513 C 948.666 591.252, 978.221 585.007, 987.522 561.500 C 989.388 556.782, 989.500 553.986, 989.500 512 C 989.500 464.124, 989.120 460.266, 983.854 454.612 C 982.834 453.518, 982 452.286, 982 451.874 C 982 450.674, 974.785 444.206, 972.025 442.932 C 970.636 442.291, 968.600 441.285, 967.500 440.696 C 965.377 439.559, 949.870 438.771, 946.500 439.629 M 393.158 442.250 C 391.803 446.095, 392.335 579.735, 393.711 581.111 C 395.194 582.594, 413.020 583.141, 414.750 581.756 C 415.691 581.003, 416 574.479, 416 555.378 L 416 530 423.250 529.988 C 439.818 529.961, 451.217 523.159, 458.193 509.136 C 461.670 502.148, 461.557 467.347, 458.031 459.237 C 455.179 452.678, 446.371 444.433, 440.557 442.882 C 438.325 442.286, 435.466 441.394, 434.203 440.900 C 432.940 440.405, 423.366 440, 412.928 440 C 394.149 440, 393.942 440.024, 393.158 442.250 M 559.547 440.923 C 558.804 442.126, 558.791 579.292, 559.534 581.228 C 560.108 582.723, 578.677 582.936, 581.041 581.475 C 581.612 581.122, 582 570.600, 582 555.441 L 582 530 587.933 530 C 593.240 530, 593.929 530.237, 594.468 532.250 C 594.799 533.487, 595.499 536.075, 596.022 538 C 596.546 539.925, 598.329 547.350, 599.985 554.500 C 601.641 561.650, 603.404 568.850, 603.903 570.500 C 604.402 572.150, 605.095 575.172, 605.444 577.215 C 606.280 582.119, 606.840 582.359, 617.971 582.582 C 631.242 582.848, 632.995 581.932, 630.125 576.236 C 629.644 575.281, 628.488 571.125, 627.557 567 C 626.626 562.875, 625.487 558.375, 625.026 557 C 624.565 555.625, 623.199 550, 621.990 544.500 C 620.781 539, 619.410 533.752, 618.942 532.837 C 615.719 526.533, 617.154 518.129, 622.378 512.723 C 623.573 511.487, 625.417 506.005, 626.489 500.500 C 627.230 496.696, 627.142 476.396, 626.349 468.500 C 624.864 453.700, 616.751 444.677, 601.736 441.127 C 596.023 439.776, 560.363 439.604, 559.547 440.923 M 640.628 443.112 C 639.424 449.132, 639.914 461.057, 641.429 462.571 C 642.468 463.611, 645.467 464, 652.429 464 C 660.853 464, 662.008 464.210, 662.063 465.750 C 662.098 466.712, 662.211 493, 662.313 524.167 C 662.416 555.333, 662.868 581.202, 663.318 581.651 C 664.559 582.893, 684.143 582.802, 684.595 581.553 C 685.696 578.513, 685.857 571.040, 685.926 519.784 L 686 464.068 696.750 463.784 L 707.500 463.500 708.018 455 C 708.303 450.325, 708.285 445.150, 707.978 443.500 L 707.419 440.500 674.337 440.237 L 641.255 439.973 640.628 443.112 M 723.460 441.250 C 723.197 441.938, 723.099 474, 723.241 512.500 L 723.500 582.500 734.500 582.500 L 745.500 582.500 746 514 C 746.275 476.325, 746.358 444.262, 746.184 442.750 L 745.867 440 734.902 440 C 727.052 440, 723.802 440.355, 723.460 441.250 M 764.275 440.790 C 763.010 441.613, 762.208 580.541, 763.461 581.794 C 764.197 582.530, 821.009 582.324, 821.751 581.583 C 822.444 580.889, 822.123 561.007, 821.400 559.837 C 821.115 559.377, 813.034 559, 803.441 559 L 786 559 785.926 504.250 C 785.885 474.137, 785.548 447.475, 785.176 445 L 784.500 440.500 775 440.246 C 769.775 440.106, 764.949 440.351, 764.275 440.790 M 834.959 442.608 C 833.742 445.808, 834.105 580.440, 835.334 581.667 C 835.792 582.125, 840.742 582.500, 846.334 582.500 L 856.500 582.500 857.038 553 C 857.334 536.775, 857.671 523.388, 857.788 523.250 C 857.905 523.112, 863.175 523, 869.500 523 L 881 523 881 551.941 C 881 570.182, 881.370 581.111, 882.001 581.501 C 882.880 582.044, 890.601 582.277, 900.757 582.067 L 904.013 582 903.757 511.250 L 903.500 440.500 892.500 440.500 L 881.500 440.500 881 470 L 880.500 499.500 872 499.804 C 867.325 499.972, 862.014 499.834, 860.197 499.499 L 856.894 498.889 857.003 470.695 C 857.064 455.188, 857.088 441.938, 857.057 441.250 C 857.015 440.333, 854.198 440, 846.475 440 C 836.053 440, 835.941 440.025, 834.959 442.608 M 501.893 463.497 C 495.917 466.745, 496 466.071, 496 511.365 L 496 552.800 499.600 556.400 C 506.177 562.977, 515.329 559.988, 517.775 550.465 C 519.886 542.246, 519.059 472.520, 516.801 468.398 C 513.545 462.455, 507.480 460.460, 501.893 463.497 M 949.487 463.115 C 948.380 463.653, 946.468 465.563, 945.237 467.359 C 943.012 470.606, 943 470.841, 943 510.878 C 943 538.969, 943.343 551.791, 944.136 553.316 C 947.724 560.218, 956.242 562.153, 961.575 557.277 C 965.673 553.532, 966 550.084, 966 510.668 C 966 474.792, 965.902 472.769, 963.956 468.630 C 961.133 462.624, 955.168 460.351, 949.487 463.115 M 416 485 L 416 506 424.326 506 C 436.781 506, 439 502.734, 439 484.403 C 439 467.592, 436.004 464, 421.980 464 L 416 464 416 485 M 581.998 485.125 L 581.995 506.500 589.715 506.163 C 602.958 505.586, 605.270 502.032, 604.534 483.384 C 603.853 466.145, 602.899 464.846, 590.427 464.191 L 582 463.749 581.998 485.125" stroke="none" fill="#002d79" fill-rule="evenodd"/>
</svg>