<svg xmlns="http://www.w3.org/2000/svg" width="1421" height="800" viewBox="0 0 1421 800" version="1.1">
	<path d="M 768 161 C 768 161.550, 768.477 162, 769.059 162 C 769.641 162, 769.840 161.550, 769.500 161 C 769.160 160.450, 768.684 160, 768.441 160 C 768.198 160, 768 160.450, 768 161 M 803.250 163.347 C 801.462 163.934, 800 164.771, 800 165.207 C 800 165.643, 799.100 166, 798 166 C 796.900 166, 796 166.450, 796 167 C 796 167.550, 794.650 168, 793 168 C 791.350 168, 790 168.450, 790 169 C 790 169.550, 789.281 170, 788.401 170 C 787.522 170, 785.541 171.350, 784 173 C 782.459 174.650, 780.478 176, 779.599 176 C 778.719 176, 778 176.719, 778 177.599 C 778 178.478, 776.650 180.459, 775 182 C 773.350 183.541, 772 185.522, 772 186.401 C 772 187.281, 771.550 188, 771 188 C 770.450 188, 770 188.900, 770 190 C 770 191.100, 769.550 192, 769 192 C 768.450 192, 768 193.800, 768 196 C 768 198.200, 767.550 200, 767 200 C 766.450 200, 766 201.800, 766 204 C 766 207.885, 767.233 209.287, 768.417 206.750 C 768.883 205.750, 769.117 205.750, 769.583 206.750 C 770.033 207.715, 778.051 208, 804.697 208 C 838.617 208, 839.301 208.040, 843.356 210.250 C 848.644 213.132, 850.521 215.391, 852.445 221.188 C 854.230 226.568, 854.446 230, 853 230 C 852.450 230, 852 230.694, 852 231.542 C 852 232.390, 851.100 234.050, 850 235.230 C 848.900 236.411, 848 237.967, 848 238.689 C 848 239.479, 846.808 240, 845 240 C 843.350 240, 842 240.465, 842 241.034 C 842 241.734, 829.692 241.977, 804 241.784 L 765.999 241.500 766 244.750 C 766 246.537, 765.550 248, 765 248 C 764.450 248, 764 248.900, 764 250 C 764 251.100, 764.450 252, 765 252 C 765.550 252, 766 253.350, 766 255 C 766 256.650, 765.550 258, 765 258 C 764.378 258, 764 263.667, 764 273 C 764 282.333, 764.378 288, 765 288 C 765.550 288, 766 288.900, 766 290 C 766 291.100, 766.450 292, 767 292 C 767.550 292, 768 291.550, 768 291 C 768 290.350, 782 290, 808 290 C 834 290, 848 289.650, 848 289 C 848 288.450, 849.998 288, 852.441 288 C 854.884 288, 857.160 287.550, 857.500 287 C 857.840 286.450, 859.441 286, 861.059 286 C 862.677 286, 864 285.550, 864 285 C 864 284.450, 864.900 284, 866 284 C 867.100 284, 868 283.550, 868 283 C 868 282.450, 868.675 282, 869.500 282 C 870.325 282, 871 281.550, 871 281 C 871 280.450, 871.675 280, 872.500 280 C 873.325 280, 874 279.605, 874 279.121 C 874 278.638, 875.350 277.683, 877 277 C 878.828 276.243, 880 275.023, 880 273.879 C 880 272.837, 880.700 272, 881.571 272 C 883.341 272, 884.295 271.112, 888.318 265.727 C 889.868 263.652, 892.231 260.860, 893.568 259.523 C 894.906 258.185, 896 256.602, 896 256.004 C 896 255.406, 896.900 253.950, 898 252.770 C 899.100 251.589, 900 249.583, 900 248.311 C 900 247.040, 900.450 246, 901 246 C 901.550 246, 902 244.650, 902 243 C 902 241.350, 902.450 240, 903 240 C 903.619 240, 904 234.686, 904 226.059 C 904 217.844, 903.589 211.864, 903 211.500 C 902.450 211.160, 902 209.810, 902 208.500 C 902 207.190, 901.550 205.840, 901 205.500 C 900.450 205.160, 900 203.883, 900 202.662 C 900 201.441, 899.100 199.793, 898 199 C 896.900 198.207, 896 197.013, 896 196.346 C 896 192.550, 885.928 179.747, 881.949 178.484 C 880.877 178.144, 880 177.446, 880 176.933 C 880 176.420, 879.148 176, 878.107 176 C 877.066 176, 875.968 175.359, 875.667 174.576 C 875.367 173.792, 873.519 172.391, 871.560 171.462 C 869.602 170.532, 868 169.373, 868 168.886 C 868 168.399, 867.127 168, 866.059 168 C 864.991 168, 863.840 167.550, 863.500 167 C 863.160 166.450, 861.649 166, 860.141 166 C 858.633 166, 856.972 165.606, 856.450 165.125 C 853.481 162.390, 810.543 160.955, 803.250 163.347 M 585.417 243.317 C 584.150 244.769, 583.943 248.153, 585.167 247.397 C 585.625 247.114, 586 247.352, 586 247.928 C 586 248.503, 587.462 249.601, 589.250 250.369 C 591.038 251.137, 593.494 252.718, 594.708 253.882 C 595.923 255.047, 597.400 256, 597.992 256 C 598.583 256, 600.604 257.538, 602.483 259.417 C 604.363 261.296, 606.823 263.126, 607.950 263.484 C 609.085 263.844, 610 264.997, 610 266.067 C 610 267.130, 610.450 268, 611 268 C 611.550 268, 612 268.900, 612 270 C 612 271.100, 612.493 272, 613.097 272 C 614.200 272, 613.906 277.882, 612.458 284.750 L 611.773 288 650.519 288 L 689.265 288 691.267 290.250 C 692.625 291.776, 693.414 292.098, 693.718 291.250 C 693.965 290.563, 695.286 290, 696.655 290 C 701.743 290, 702 288.845, 702 266 C 702 249.010, 701.719 244.577, 700.571 243.429 C 698.597 241.455, 587.136 241.347, 585.417 243.317 M 403.686 401.691 C 402.138 402.505, 400.596 403.920, 400.259 404.835 C 399.922 405.751, 399.364 406.725, 399.019 407 C 396.264 409.199, 396.460 421.963, 399.250 421.992 C 399.663 421.996, 400.004 422.788, 400.008 423.750 C 400.015 425.443, 404.042 428, 406.699 428 C 407.415 428, 408 428.499, 408 429.109 C 408 430.733, 420.646 428.497, 422.618 426.524 C 423.851 425.292, 423.770 416.891, 422.496 413.750 C 421.720 411.837, 416 411.229, 416 413.059 C 416 413.641, 415.577 413.856, 415.060 413.537 C 414.542 413.217, 413.161 413.978, 411.991 415.228 L 409.862 417.500 412.931 417.813 C 417.845 418.315, 417.239 422.011, 412.250 421.968 C 404.237 421.900, 401.520 413.337, 407.587 407.271 C 409.090 405.767, 414 405.560, 414 407 C 414 407.550, 414.637 408, 415.417 408 C 416.196 408, 417.038 408.563, 417.288 409.250 C 417.631 410.193, 418.204 410.228, 419.621 409.393 C 423.275 407.239, 422.039 402, 417.878 402 C 416.845 402, 416 401.550, 416 401 C 416 399.492, 406.897 400.003, 403.686 401.691 M 428 408 C 428 412.633, 427.582 416, 427.006 416 C 425.914 416, 426.108 418.780, 427.338 420.750 C 427.777 421.454, 427.656 422, 427.059 422 C 425.504 422, 425.769 425.226, 427.532 427.742 C 429.577 430.662, 434 428.971, 434 425.268 C 434 421.629, 436.553 419.410, 438.500 421.357 C 439.325 422.182, 440 423.366, 440 423.988 C 440 424.609, 440.450 424.840, 441 424.500 C 441.550 424.160, 442 424.732, 442 425.772 C 442 428.793, 446.629 430.799, 448.737 428.692 C 450.047 427.382, 450.150 426.750, 449.207 425.807 C 448.543 425.143, 448 423.565, 448 422.300 C 448 421.035, 447.550 420, 447 420 C 446.450 420, 446 419.100, 446 418 C 446 416.900, 446.647 416, 447.439 416 C 448.921 416, 450.527 408.963, 449.846 405.448 C 449.198 402.104, 444.078 400.152, 435.750 400.073 L 428 400 428 408 M 453.318 403.743 C 451.644 409.092, 453.655 422.690, 456.555 425.622 C 462.185 431.316, 469.488 431.712, 474.600 426.600 C 477.780 423.420, 478 422.773, 478 416.600 C 478 412.867, 478.434 410, 479 410 C 479.550 410, 480 408.650, 480 407 C 480 405.350, 479.550 404, 479 404 C 478.450 404, 478 403.070, 478 401.934 C 478 400.269, 477.465 399.929, 475.250 400.184 C 472.543 400.495, 472.495 400.621, 472.208 408.250 C 472.047 412.512, 471.485 416, 470.958 416 C 470.431 416, 470 417.350, 470 419 C 470 421.833, 469.778 422, 466 422 C 462.667 422, 462 421.667, 462 420 C 462 418.900, 461.550 418, 461 418 C 460.421 418, 460 414.810, 460 410.429 C 460 400.008, 455.802 395.808, 453.318 403.743 M 486 401 C 486 401.550, 485.065 402, 483.922 402 C 481.909 402, 481.854 402.397, 482.195 414.473 C 482.580 428.146, 483.146 429.566, 487.798 428.544 C 490.632 427.922, 490.766 427.673, 490.266 423.943 L 489.737 420 495.632 420 L 501.528 420 503.261 416 C 505.092 411.775, 505.603 411.214, 505.768 413.250 C 506.273 419.467, 511.069 428, 514.059 428 C 514.591 428, 515.883 428.535, 516.929 429.188 C 519.257 430.641, 526.583 428.600, 529.117 425.792 C 530.007 424.806, 531.469 424, 532.367 424 C 534.612 424, 535.120 408.985, 532.903 408.167 C 532.406 407.983, 532 407.175, 532 406.371 C 532 403.004, 527.302 400, 522.034 400 C 515.611 400, 508.068 403.545, 508.027 406.583 C 508.012 407.729, 507.721 408.945, 507.381 409.286 C 506.493 410.173, 504 407.434, 504 405.571 C 504 404.707, 503.550 404, 503 404 C 502.450 404, 502 403.100, 502 402 C 502 400.167, 501.333 400, 494 400 C 489.333 400, 486 400.417, 486 401 M 434 409.940 C 434 414.378, 434.826 414.814, 439.329 412.750 C 443.697 410.748, 442.699 406.599, 437.750 406.190 L 434 405.879 434 409.940 M 490 409.481 C 490 413.396, 493.652 415.363, 496.513 412.989 C 499.641 410.393, 497.163 406, 492.571 406 C 490.302 406, 490 406.409, 490 409.481 M 517.200 407.200 C 516.540 407.860, 516 409.210, 516 410.200 C 516 411.333, 515.259 412, 514 412 C 512.900 412, 512 412.450, 512 413 C 512 413.550, 512.450 414, 513 414 C 513.550 414, 514 415.157, 514 416.571 C 514 420.038, 516.191 422, 520.061 422 C 523.539 422, 527.439 418.587, 526.565 416.308 C 526.289 415.589, 526.499 415, 527.031 415 C 528.608 415, 528.138 412.858, 526.181 411.117 C 525.180 410.228, 524.069 408.712, 523.712 407.750 C 522.968 405.744, 518.992 405.408, 517.200 407.200 M 640.500 463 C 640.840 463.550, 641.316 464, 641.559 464 C 641.802 464, 642 463.550, 642 463 C 642 462.450, 641.523 462, 640.941 462 C 640.359 462, 640.160 462.450, 640.500 463" stroke="none" fill="#a3e635" fill-rule="evenodd"/>
</svg>